<svg id="Layer_1" data-name="Layer 1" xmlns="http://www.w3.org/2000/svg" xmlns:xlink="http://www.w3.org/1999/xlink" viewBox="0 0 2400 2400"><defs><style>.cls-1{fill:url(#linear-gradient);}.cls-2{fill:url(#linear-gradient-2);}.cls-3{fill:url(#linear-gradient-3);}.cls-4{fill:url(#linear-gradient-4);}.cls-5{fill:#001e5f;}</style><linearGradient id="linear-gradient" x1="830.87" y1="583.24" x2="1552.14" y2="1832.52" gradientUnits="userSpaceOnUse"><stop offset="0" stop-color="#ffe516"/><stop offset="1" stop-color="#c78004"/></linearGradient><linearGradient id="linear-gradient-2" x1="795.7" y1="1221.44" x2="2076.42" y2="1221.44" gradientUnits="userSpaceOnUse"><stop offset="0" stop-color="#2eadff"/><stop offset="0.23" stop-color="#2ba8ff"/><stop offset="0.49" stop-color="#219aff"/><stop offset="0.78" stop-color="#1082ff"/><stop offset="1" stop-color="#006bff"/></linearGradient><linearGradient id="linear-gradient-3" x1="323.55" y1="1281.12" x2="853.07" y2="1281.12" xlink:href="#linear-gradient-2"/><linearGradient id="linear-gradient-4" x1="70" y1="1200" x2="2330" y2="1200" xlink:href="#linear-gradient-2"/></defs><circle class="cls-1" cx="1191.5" cy="1207.88" r="721.15"/><path class="cls-2" d="M1200,323.55c-138.13,0-270.34,31.21-392.94,92.78a20.64,20.64,0,1,0,18.54,36.89c116.79-58.64,242.77-88.38,374.4-88.38,460.49,0,835.16,374.67,835.16,835.16,0,415.14-309.65,770.81-720.24,827.34a20.5,20.5,0,0,0-7.81,2.75,63.49,63.49,0,1,0,4.39,37.35,20.55,20.55,0,0,0,9.07.77c430.9-59.31,755.85-432.55,755.85-868.21C2076.42,716.73,1683.27,323.55,1200,323.55Zm49.08,1776.94a44.67,44.67,0,1,1,44.68-44.68A44.71,44.71,0,0,1,1249.08,2100.49Z"/><path class="cls-3" d="M841.27,1954.41C551.84,1816.58,364.84,1520.46,364.84,1200c0-183.61,58.45-357.84,169-503.83a20.24,20.24,0,0,0,3-5.71,63.53,63.53,0,1,0-29.1-25,20.44,20.44,0,0,0-6.84,5.77C384.87,824.47,323.55,1007.32,323.55,1200c0,336.28,196.25,647.06,500,791.7a20.64,20.64,0,0,0,17.71-37.29ZM561.73,587.36A44.67,44.67,0,1,1,517.05,632,44.7,44.7,0,0,1,561.73,587.36Z"/><path class="cls-4" d="M2151.12,589.71a38.34,38.34,0,1,0-64.5,41.47c109,169.59,166.63,366.31,166.63,568.82,0,580.79-472.49,1053.25-1053.25,1053.25S146.72,1780.79,146.72,1200,619.21,146.75,1200,146.75c173,0,344.34,42.79,495.83,123.78A153.6,153.6,0,0,0,1685,327.27c0,85.3,69.39,154.69,154.66,154.69s154.69-69.39,154.69-154.69S1925,172.62,1839.7,172.62a153.74,153.74,0,0,0-98.7,35.7,33.82,33.82,0,0,0-5.32-3.48C1572.2,116.64,1387,70,1200,70,576.91,70,70,576.91,70,1200S576.91,2330,1200,2330s1130-506.91,1130-1130C2330,982.73,2268.12,771.67,2151.12,589.71ZM1839.7,249.33a78,78,0,1,1-77.94,77.94A78,78,0,0,1,1839.7,249.33Z"/><path class="cls-5" d="M1556.05,989.24c-6.59-86.65-63-167.44-141.56-204.62a249,249,0,0,0-87.26-22.85,264.78,264.78,0,0,0-129.35,22.71C1132.28,814.4,1087,878,1070.13,947.1c-14,57.3-12,117.14-9,176q-131.7,0-263.4,0v127.53h261V1339h-261V1466.5h261v176.59h134q0-88.3-.09-176.59h185.33V1339H1192.51q0-41.76,0-83.53c86.77,4.14,179,1.86,252.54-44.37S1562.65,1075.89,1556.05,989.24ZM1398.65,1079c-30.66,30.66-46.6,54-206,41.7V1006.65s4.9-123.85,132.43-116.49C1460,919.59,1429.33,1048.32,1398.65,1079Z"/></svg>